<mxfile host="app.diagrams.net" modified="2024-03-03T18:46:03.814Z" agent="Mozilla/5.0 (Windows NT 10.0; Win64; x64) AppleWebKit/537.36 (KHTML, like Gecko) Chrome/121.0.0.0 Safari/537.36" etag="wi6p9mJo_B4_XtkVj_Mn" version="24.0.1" type="github">
  <diagram name="Page-1" id="ZGP9689j3KouicQ-HYIw">
    <mxGraphModel dx="1034" dy="1512" grid="1" gridSize="10" guides="1" tooltips="1" connect="1" arrows="1" fold="1" page="1" pageScale="1" pageWidth="850" pageHeight="1100" background="#63a1bf" math="0" shadow="0">
      <root>
        <mxCell id="0" />
        <mxCell id="1" parent="0" />
        <mxCell id="p3evvmeF-BawK3rB3DHZ-2" value="Request" style="rounded=0;whiteSpace=wrap;html=1;labelBackgroundColor=none;fillColor=#09555B;strokeColor=#BAC8D3;fontColor=#EEEEEE;" vertex="1" parent="1">
          <mxGeometry x="230" y="80" width="130" height="60" as="geometry" />
        </mxCell>
        <mxCell id="p3evvmeF-BawK3rB3DHZ-5" value="" style="edgeStyle=orthogonalEdgeStyle;rounded=0;orthogonalLoop=1;jettySize=auto;html=1;labelBackgroundColor=none;strokeColor=#0B4D6A;fontColor=default;" edge="1" parent="1" source="p3evvmeF-BawK3rB3DHZ-3" target="p3evvmeF-BawK3rB3DHZ-4">
          <mxGeometry relative="1" as="geometry" />
        </mxCell>
        <mxCell id="p3evvmeF-BawK3rB3DHZ-9" style="edgeStyle=orthogonalEdgeStyle;rounded=0;orthogonalLoop=1;jettySize=auto;html=1;exitX=0.75;exitY=0.1;exitDx=0;exitDy=0;exitPerimeter=0;labelBackgroundColor=none;strokeColor=#0B4D6A;fontColor=default;" edge="1" parent="1" source="p3evvmeF-BawK3rB3DHZ-3" target="p3evvmeF-BawK3rB3DHZ-2">
          <mxGeometry relative="1" as="geometry" />
        </mxCell>
        <mxCell id="p3evvmeF-BawK3rB3DHZ-12" value="" style="edgeStyle=orthogonalEdgeStyle;rounded=0;orthogonalLoop=1;jettySize=auto;html=1;labelBackgroundColor=none;strokeColor=#0B4D6A;fontColor=default;" edge="1" parent="1" source="p3evvmeF-BawK3rB3DHZ-3" target="p3evvmeF-BawK3rB3DHZ-4">
          <mxGeometry relative="1" as="geometry" />
        </mxCell>
        <mxCell id="p3evvmeF-BawK3rB3DHZ-14" style="edgeStyle=orthogonalEdgeStyle;rounded=0;orthogonalLoop=1;jettySize=auto;html=1;exitX=0.5;exitY=0.5;exitDx=0;exitDy=0;exitPerimeter=0;labelBackgroundColor=none;strokeColor=#0B4D6A;fontColor=default;" edge="1" parent="1" source="p3evvmeF-BawK3rB3DHZ-3" target="p3evvmeF-BawK3rB3DHZ-13">
          <mxGeometry relative="1" as="geometry" />
        </mxCell>
        <mxCell id="p3evvmeF-BawK3rB3DHZ-3" value="Actor" style="shape=umlActor;verticalLabelPosition=bottom;verticalAlign=top;html=1;outlineConnect=0;labelBackgroundColor=none;fillColor=#09555B;strokeColor=#BAC8D3;fontColor=#EEEEEE;" vertex="1" parent="1">
          <mxGeometry x="60" y="140" width="30" height="60" as="geometry" />
        </mxCell>
        <mxCell id="p3evvmeF-BawK3rB3DHZ-4" value="Client" style="whiteSpace=wrap;html=1;verticalAlign=top;labelBackgroundColor=none;fillColor=#09555B;strokeColor=#BAC8D3;fontColor=#EEEEEE;" vertex="1" parent="1">
          <mxGeometry x="15" y="250" width="120" height="30" as="geometry" />
        </mxCell>
        <mxCell id="p3evvmeF-BawK3rB3DHZ-17" value="" style="edgeStyle=orthogonalEdgeStyle;rounded=0;orthogonalLoop=1;jettySize=auto;html=1;exitX=0.444;exitY=1.044;exitDx=0;exitDy=0;exitPerimeter=0;labelBackgroundColor=none;strokeColor=#0B4D6A;fontColor=default;" edge="1" parent="1" source="p3evvmeF-BawK3rB3DHZ-13" target="p3evvmeF-BawK3rB3DHZ-16">
          <mxGeometry relative="1" as="geometry" />
        </mxCell>
        <mxCell id="p3evvmeF-BawK3rB3DHZ-13" value="Views&amp;nbsp;" style="rounded=0;whiteSpace=wrap;html=1;labelBackgroundColor=none;fillColor=#09555B;strokeColor=#BAC8D3;fontColor=#EEEEEE;" vertex="1" parent="1">
          <mxGeometry x="230" y="200" width="120" height="60" as="geometry" />
        </mxCell>
        <mxCell id="p3evvmeF-BawK3rB3DHZ-15" value="Pending" style="rounded=0;whiteSpace=wrap;html=1;labelBackgroundColor=none;fillColor=#09555B;strokeColor=#BAC8D3;fontColor=#EEEEEE;" vertex="1" parent="1">
          <mxGeometry x="150" y="320" width="120" height="60" as="geometry" />
        </mxCell>
        <mxCell id="p3evvmeF-BawK3rB3DHZ-16" value="Completed" style="rounded=0;whiteSpace=wrap;html=1;labelBackgroundColor=none;fillColor=#09555B;strokeColor=#BAC8D3;fontColor=#EEEEEE;" vertex="1" parent="1">
          <mxGeometry x="320" y="320" width="120" height="60" as="geometry" />
        </mxCell>
        <mxCell id="p3evvmeF-BawK3rB3DHZ-21" style="edgeStyle=orthogonalEdgeStyle;rounded=0;orthogonalLoop=1;jettySize=auto;html=1;exitX=0.25;exitY=1;exitDx=0;exitDy=0;entryX=0.628;entryY=-0.1;entryDx=0;entryDy=0;entryPerimeter=0;labelBackgroundColor=none;strokeColor=#0B4D6A;fontColor=default;" edge="1" parent="1" source="p3evvmeF-BawK3rB3DHZ-13" target="p3evvmeF-BawK3rB3DHZ-15">
          <mxGeometry relative="1" as="geometry" />
        </mxCell>
        <mxCell id="p3evvmeF-BawK3rB3DHZ-32" style="edgeStyle=orthogonalEdgeStyle;rounded=0;orthogonalLoop=1;jettySize=auto;html=1;exitX=0;exitY=0;exitDx=0;exitDy=52.5;exitPerimeter=0;entryX=1;entryY=0.5;entryDx=0;entryDy=0;labelBackgroundColor=none;strokeColor=#0B4D6A;fontColor=default;" edge="1" parent="1" source="p3evvmeF-BawK3rB3DHZ-30" target="p3evvmeF-BawK3rB3DHZ-13">
          <mxGeometry relative="1" as="geometry" />
        </mxCell>
        <mxCell id="p3evvmeF-BawK3rB3DHZ-105" style="edgeStyle=orthogonalEdgeStyle;rounded=0;orthogonalLoop=1;jettySize=auto;html=1;exitX=1;exitY=0.5;exitDx=0;exitDy=0;exitPerimeter=0;entryX=0;entryY=0.5;entryDx=0;entryDy=0;strokeColor=#0B4D6A;" edge="1" parent="1" source="p3evvmeF-BawK3rB3DHZ-30" target="p3evvmeF-BawK3rB3DHZ-39">
          <mxGeometry relative="1" as="geometry" />
        </mxCell>
        <mxCell id="p3evvmeF-BawK3rB3DHZ-30" value="Database" style="shape=cylinder3;whiteSpace=wrap;html=1;boundedLbl=1;backgroundOutline=1;size=15;labelBackgroundColor=none;fillColor=#09555B;strokeColor=#BAC8D3;fontColor=#EEEEEE;" vertex="1" parent="1">
          <mxGeometry x="440" y="140" width="60" height="80" as="geometry" />
        </mxCell>
        <mxCell id="p3evvmeF-BawK3rB3DHZ-31" style="edgeStyle=orthogonalEdgeStyle;rounded=0;orthogonalLoop=1;jettySize=auto;html=1;exitX=1;exitY=0.5;exitDx=0;exitDy=0;entryX=0;entryY=0.5;entryDx=0;entryDy=0;entryPerimeter=0;labelBackgroundColor=none;strokeColor=#0B4D6A;fontColor=default;" edge="1" parent="1" source="p3evvmeF-BawK3rB3DHZ-2" target="p3evvmeF-BawK3rB3DHZ-30">
          <mxGeometry relative="1" as="geometry" />
        </mxCell>
        <mxCell id="p3evvmeF-BawK3rB3DHZ-35" value="Client ID" style="rounded=0;whiteSpace=wrap;html=1;labelBackgroundColor=none;fillColor=#09555B;strokeColor=#BAC8D3;fontColor=#EEEEEE;" vertex="1" parent="1">
          <mxGeometry x="480" y="620" width="120" height="50" as="geometry" />
        </mxCell>
        <mxCell id="p3evvmeF-BawK3rB3DHZ-37" value="Product Type" style="rounded=0;whiteSpace=wrap;html=1;labelBackgroundColor=none;fillColor=#09555B;strokeColor=#BAC8D3;fontColor=#EEEEEE;" vertex="1" parent="1">
          <mxGeometry x="650" y="620" width="120" height="50" as="geometry" />
        </mxCell>
        <mxCell id="p3evvmeF-BawK3rB3DHZ-38" value="Bank" style="rounded=0;whiteSpace=wrap;html=1;labelBackgroundColor=none;fillColor=#09555B;strokeColor=#BAC8D3;fontColor=#EEEEEE;" vertex="1" parent="1">
          <mxGeometry x="860" y="620" width="120" height="50" as="geometry" />
        </mxCell>
        <mxCell id="p3evvmeF-BawK3rB3DHZ-121" style="edgeStyle=orthogonalEdgeStyle;rounded=0;orthogonalLoop=1;jettySize=auto;html=1;exitX=0.5;exitY=1;exitDx=0;exitDy=0;entryX=0.5;entryY=0;entryDx=0;entryDy=0;strokeColor=#0B4D6A;" edge="1" parent="1" source="p3evvmeF-BawK3rB3DHZ-39" target="p3evvmeF-BawK3rB3DHZ-54">
          <mxGeometry relative="1" as="geometry" />
        </mxCell>
        <mxCell id="p3evvmeF-BawK3rB3DHZ-39" value="Queue" style="rounded=0;whiteSpace=wrap;html=1;labelBackgroundColor=none;fillColor=#09555B;strokeColor=#BAC8D3;fontColor=#EEEEEE;" vertex="1" parent="1">
          <mxGeometry x="650" y="70" width="120" height="50" as="geometry" />
        </mxCell>
        <mxCell id="p3evvmeF-BawK3rB3DHZ-44" value="Actor" style="shape=umlActor;verticalLabelPosition=bottom;verticalAlign=top;html=1;outlineConnect=0;labelBackgroundColor=none;fillColor=#09555B;strokeColor=#BAC8D3;fontColor=#EEEEEE;" vertex="1" parent="1">
          <mxGeometry x="590" y="340" width="30" height="60" as="geometry" />
        </mxCell>
        <mxCell id="p3evvmeF-BawK3rB3DHZ-45" value="Actor" style="shape=umlActor;verticalLabelPosition=bottom;verticalAlign=top;html=1;outlineConnect=0;labelBackgroundColor=none;fillColor=#09555B;strokeColor=#BAC8D3;fontColor=#EEEEEE;" vertex="1" parent="1">
          <mxGeometry x="785" y="340" width="30" height="60" as="geometry" />
        </mxCell>
        <mxCell id="p3evvmeF-BawK3rB3DHZ-49" value="Admin" style="rounded=0;whiteSpace=wrap;html=1;labelBackgroundColor=none;fillColor=#09555B;strokeColor=#BAC8D3;fontColor=#EEEEEE;" vertex="1" parent="1">
          <mxGeometry x="570" y="440" width="100" height="40" as="geometry" />
        </mxCell>
        <mxCell id="p3evvmeF-BawK3rB3DHZ-50" value="Reporter" style="rounded=0;whiteSpace=wrap;html=1;labelBackgroundColor=none;fillColor=#09555B;strokeColor=#BAC8D3;fontColor=#EEEEEE;" vertex="1" parent="1">
          <mxGeometry x="770" y="440" width="100" height="40" as="geometry" />
        </mxCell>
        <mxCell id="p3evvmeF-BawK3rB3DHZ-51" value="&lt;font style=&quot;font-size: 36px;&quot;&gt;Front&lt;/font&gt;" style="text;html=1;align=center;verticalAlign=middle;whiteSpace=wrap;rounded=0;labelBackgroundColor=none;fontColor=#EEEEEE;" vertex="1" parent="1">
          <mxGeometry x="250" y="-20" width="80" height="30" as="geometry" />
        </mxCell>
        <mxCell id="p3evvmeF-BawK3rB3DHZ-52" value="&lt;font style=&quot;font-size: 36px;&quot;&gt;Back&lt;/font&gt;" style="text;html=1;align=center;verticalAlign=middle;whiteSpace=wrap;rounded=0;labelBackgroundColor=none;fontColor=#EEEEEE;" vertex="1" parent="1">
          <mxGeometry x="650" y="-20" width="80" height="30" as="geometry" />
        </mxCell>
        <mxCell id="p3evvmeF-BawK3rB3DHZ-112" style="edgeStyle=orthogonalEdgeStyle;rounded=0;orthogonalLoop=1;jettySize=auto;html=1;exitX=0.5;exitY=1;exitDx=0;exitDy=0;strokeColor=#0B4D6A;" edge="1" parent="1" source="p3evvmeF-BawK3rB3DHZ-54" target="p3evvmeF-BawK3rB3DHZ-44">
          <mxGeometry relative="1" as="geometry" />
        </mxCell>
        <mxCell id="p3evvmeF-BawK3rB3DHZ-113" style="edgeStyle=orthogonalEdgeStyle;rounded=0;orthogonalLoop=1;jettySize=auto;html=1;exitX=0.5;exitY=1;exitDx=0;exitDy=0;strokeColor=#0B4D6A;" edge="1" parent="1" source="p3evvmeF-BawK3rB3DHZ-54" target="p3evvmeF-BawK3rB3DHZ-45">
          <mxGeometry relative="1" as="geometry" />
        </mxCell>
        <mxCell id="p3evvmeF-BawK3rB3DHZ-54" value="Permisions" style="rhombus;whiteSpace=wrap;html=1;labelBackgroundColor=none;fillColor=#09555B;strokeColor=#BAC8D3;fontColor=#EEEEEE;" vertex="1" parent="1">
          <mxGeometry x="640" y="190" width="100" height="100" as="geometry" />
        </mxCell>
        <mxCell id="p3evvmeF-BawK3rB3DHZ-63" value="Client&amp;nbsp;" style="swimlane;fontStyle=0;childLayout=stackLayout;horizontal=1;startSize=20;horizontalStack=0;resizeParent=1;resizeParentMax=0;resizeLast=0;collapsible=1;marginBottom=0;whiteSpace=wrap;html=1;labelBackgroundColor=none;fillColor=#09555B;strokeColor=#BAC8D3;fontColor=#EEEEEE;" vertex="1" parent="1">
          <mxGeometry x="60" y="780" width="130" height="170" as="geometry">
            <mxRectangle x="60" y="780" width="70" height="30" as="alternateBounds" />
          </mxGeometry>
        </mxCell>
        <mxCell id="p3evvmeF-BawK3rB3DHZ-64" value="Client ID / User ID" style="text;strokeColor=none;fillColor=none;align=left;verticalAlign=middle;spacingLeft=4;spacingRight=4;overflow=hidden;points=[[0,0.5],[1,0.5]];portConstraint=eastwest;rotatable=0;whiteSpace=wrap;html=1;labelBackgroundColor=none;fontColor=#EEEEEE;" vertex="1" parent="p3evvmeF-BawK3rB3DHZ-63">
          <mxGeometry y="20" width="130" height="30" as="geometry" />
        </mxCell>
        <mxCell id="p3evvmeF-BawK3rB3DHZ-65" value="Password" style="text;strokeColor=none;fillColor=none;align=left;verticalAlign=middle;spacingLeft=4;spacingRight=4;overflow=hidden;points=[[0,0.5],[1,0.5]];portConstraint=eastwest;rotatable=0;whiteSpace=wrap;html=1;labelBackgroundColor=none;fontColor=#EEEEEE;" vertex="1" parent="p3evvmeF-BawK3rB3DHZ-63">
          <mxGeometry y="50" width="130" height="30" as="geometry" />
        </mxCell>
        <mxCell id="p3evvmeF-BawK3rB3DHZ-66" value="Name&amp;nbsp;" style="text;strokeColor=none;fillColor=none;align=left;verticalAlign=middle;spacingLeft=4;spacingRight=4;overflow=hidden;points=[[0,0.5],[1,0.5]];portConstraint=eastwest;rotatable=0;whiteSpace=wrap;html=1;labelBackgroundColor=none;fontColor=#EEEEEE;" vertex="1" parent="p3evvmeF-BawK3rB3DHZ-63">
          <mxGeometry y="80" width="130" height="30" as="geometry" />
        </mxCell>
        <mxCell id="p3evvmeF-BawK3rB3DHZ-78" value="Billing Address" style="text;strokeColor=none;fillColor=none;spacingLeft=4;spacingRight=4;overflow=hidden;rotatable=0;points=[[0,0.5],[1,0.5]];portConstraint=eastwest;fontSize=12;whiteSpace=wrap;html=1;labelBackgroundColor=none;fontColor=#EEEEEE;" vertex="1" parent="p3evvmeF-BawK3rB3DHZ-63">
          <mxGeometry y="110" width="130" height="30" as="geometry" />
        </mxCell>
        <mxCell id="p3evvmeF-BawK3rB3DHZ-83" value="Language" style="text;strokeColor=none;fillColor=none;spacingLeft=4;spacingRight=4;overflow=hidden;rotatable=0;points=[[0,0.5],[1,0.5]];portConstraint=eastwest;fontSize=12;whiteSpace=wrap;html=1;labelBackgroundColor=none;fontColor=#EEEEEE;" vertex="1" parent="p3evvmeF-BawK3rB3DHZ-63">
          <mxGeometry y="140" width="130" height="30" as="geometry" />
        </mxCell>
        <mxCell id="p3evvmeF-BawK3rB3DHZ-67" value="&lt;font style=&quot;font-size: 24px;&quot;&gt;Object&lt;/font&gt;" style="text;html=1;align=center;verticalAlign=middle;whiteSpace=wrap;rounded=0;labelBackgroundColor=none;fontColor=#EEEEEE;" vertex="1" parent="1">
          <mxGeometry x="90" y="700" width="60" height="30" as="geometry" />
        </mxCell>
        <mxCell id="p3evvmeF-BawK3rB3DHZ-79" value="Request" style="swimlane;fontStyle=0;childLayout=stackLayout;horizontal=1;startSize=26;horizontalStack=0;resizeParent=1;resizeParentMax=0;resizeLast=0;collapsible=1;marginBottom=0;align=center;fontSize=14;labelBackgroundColor=none;fillColor=#09555B;strokeColor=#BAC8D3;fontColor=#EEEEEE;" vertex="1" parent="1">
          <mxGeometry x="280" y="730" width="160" height="360" as="geometry">
            <mxRectangle x="280" y="730" width="90" height="30" as="alternateBounds" />
          </mxGeometry>
        </mxCell>
        <mxCell id="p3evvmeF-BawK3rB3DHZ-80" value="Subject Company Name" style="text;strokeColor=none;fillColor=none;spacingLeft=4;spacingRight=4;overflow=hidden;rotatable=0;points=[[0,0.5],[1,0.5]];portConstraint=eastwest;fontSize=12;whiteSpace=wrap;html=1;labelBackgroundColor=none;fontColor=#EEEEEE;" vertex="1" parent="p3evvmeF-BawK3rB3DHZ-79">
          <mxGeometry y="26" width="160" height="30" as="geometry" />
        </mxCell>
        <mxCell id="p3evvmeF-BawK3rB3DHZ-81" value="Address" style="text;strokeColor=none;fillColor=none;spacingLeft=4;spacingRight=4;overflow=hidden;rotatable=0;points=[[0,0.5],[1,0.5]];portConstraint=eastwest;fontSize=12;whiteSpace=wrap;html=1;labelBackgroundColor=none;fontColor=#EEEEEE;" vertex="1" parent="p3evvmeF-BawK3rB3DHZ-79">
          <mxGeometry y="56" width="160" height="30" as="geometry" />
        </mxCell>
        <mxCell id="p3evvmeF-BawK3rB3DHZ-91" value="" style="rounded=1;absoluteArcSize=1;html=1;arcSize=10;fillColor=none;labelBackgroundColor=none;strokeColor=#BAC8D3;fontColor=#EEEEEE;" vertex="1" parent="p3evvmeF-BawK3rB3DHZ-79">
          <mxGeometry y="86" width="160" height="100" as="geometry" />
        </mxCell>
        <mxCell id="p3evvmeF-BawK3rB3DHZ-92" value="Product Type" style="html=1;shape=mxgraph.er.anchor;whiteSpace=wrap;labelBackgroundColor=none;fillColor=#09555B;strokeColor=#BAC8D3;fontColor=#EEEEEE;" vertex="1" parent="p3evvmeF-BawK3rB3DHZ-91">
          <mxGeometry width="50" height="100" as="geometry" />
        </mxCell>
        <mxCell id="p3evvmeF-BawK3rB3DHZ-93" value="-Bank&lt;div&gt;-Business&lt;/div&gt;&lt;div&gt;-Corp Profile&lt;/div&gt;" style="rounded=1;absoluteArcSize=1;html=1;arcSize=10;whiteSpace=wrap;points=[];strokeColor=#BAC8D3;fillColor=#09555B;labelBackgroundColor=none;fontColor=#EEEEEE;" vertex="1" parent="p3evvmeF-BawK3rB3DHZ-91">
          <mxGeometry x="50" y="5" width="100" height="90" as="geometry" />
        </mxCell>
        <mxCell id="p3evvmeF-BawK3rB3DHZ-87" value="" style="rounded=1;absoluteArcSize=1;html=1;arcSize=10;glass=0;fillColor=none;labelBackgroundColor=none;strokeColor=#BAC8D3;fontColor=#EEEEEE;" vertex="1" parent="p3evvmeF-BawK3rB3DHZ-79">
          <mxGeometry y="186" width="160" height="100" as="geometry" />
        </mxCell>
        <mxCell id="p3evvmeF-BawK3rB3DHZ-88" value="Bank Details Yes / No" style="html=1;shape=mxgraph.er.anchor;whiteSpace=wrap;labelBackgroundColor=none;fillColor=#09555B;strokeColor=#BAC8D3;fontColor=#EEEEEE;" vertex="1" parent="p3evvmeF-BawK3rB3DHZ-87">
          <mxGeometry width="50" height="100" as="geometry" />
        </mxCell>
        <mxCell id="p3evvmeF-BawK3rB3DHZ-89" value="Bank Name&lt;div&gt;Transit&lt;/div&gt;&lt;div&gt;(or)&lt;/div&gt;&lt;div&gt;Bank Address&lt;/div&gt;" style="rounded=1;absoluteArcSize=1;html=1;arcSize=10;whiteSpace=wrap;points=[];strokeColor=#BAC8D3;fillColor=#09555B;labelBackgroundColor=none;fontColor=#EEEEEE;" vertex="1" parent="p3evvmeF-BawK3rB3DHZ-87">
          <mxGeometry x="50" y="5" width="90" height="90" as="geometry" />
        </mxCell>
        <mxCell id="p3evvmeF-BawK3rB3DHZ-82" value="Authorized Signature Yes/No" style="text;strokeColor=none;fillColor=none;spacingLeft=4;spacingRight=4;overflow=hidden;rotatable=0;points=[[0,0.5],[1,0.5]];portConstraint=eastwest;fontSize=12;whiteSpace=wrap;html=1;labelBackgroundColor=none;fontColor=#EEEEEE;" vertex="1" parent="p3evvmeF-BawK3rB3DHZ-79">
          <mxGeometry y="286" width="160" height="44" as="geometry" />
        </mxCell>
        <mxCell id="p3evvmeF-BawK3rB3DHZ-96" value="Attachment" style="text;strokeColor=none;fillColor=none;spacingLeft=4;spacingRight=4;overflow=hidden;rotatable=0;points=[[0,0.5],[1,0.5]];portConstraint=eastwest;fontSize=12;whiteSpace=wrap;html=1;fontColor=#EEEEEE;" vertex="1" parent="p3evvmeF-BawK3rB3DHZ-79">
          <mxGeometry y="330" width="160" height="30" as="geometry" />
        </mxCell>
        <mxCell id="p3evvmeF-BawK3rB3DHZ-97" value="Queue" style="swimlane;fontStyle=0;childLayout=stackLayout;horizontal=1;startSize=26;horizontalStack=0;resizeParent=1;resizeParentMax=0;resizeLast=0;collapsible=1;marginBottom=0;align=center;fontSize=14;strokeColor=#BAC8D3;fontColor=#EEEEEE;fillColor=#09555B;" vertex="1" parent="1">
          <mxGeometry x="600" y="730" width="160" height="440" as="geometry" />
        </mxCell>
        <mxCell id="p3evvmeF-BawK3rB3DHZ-98" value="Client ID" style="text;strokeColor=none;fillColor=none;spacingLeft=4;spacingRight=4;overflow=hidden;rotatable=0;points=[[0,0.5],[1,0.5]];portConstraint=eastwest;fontSize=12;whiteSpace=wrap;html=1;fontColor=#EEEEEE;" vertex="1" parent="p3evvmeF-BawK3rB3DHZ-97">
          <mxGeometry y="26" width="160" height="30" as="geometry" />
        </mxCell>
        <mxCell id="p3evvmeF-BawK3rB3DHZ-99" value="Client Name" style="text;strokeColor=none;fillColor=none;spacingLeft=4;spacingRight=4;overflow=hidden;rotatable=0;points=[[0,0.5],[1,0.5]];portConstraint=eastwest;fontSize=12;whiteSpace=wrap;html=1;fontColor=#EEEEEE;" vertex="1" parent="p3evvmeF-BawK3rB3DHZ-97">
          <mxGeometry y="56" width="160" height="30" as="geometry" />
        </mxCell>
        <mxCell id="p3evvmeF-BawK3rB3DHZ-100" value="Subject Company Name" style="text;strokeColor=none;fillColor=none;spacingLeft=4;spacingRight=4;overflow=hidden;rotatable=0;points=[[0,0.5],[1,0.5]];portConstraint=eastwest;fontSize=12;whiteSpace=wrap;html=1;fontColor=#EEEEEE;" vertex="1" parent="p3evvmeF-BawK3rB3DHZ-97">
          <mxGeometry y="86" width="160" height="30" as="geometry" />
        </mxCell>
        <mxCell id="p3evvmeF-BawK3rB3DHZ-101" value="Product Type" style="text;strokeColor=none;fillColor=none;spacingLeft=4;spacingRight=4;overflow=hidden;rotatable=0;points=[[0,0.5],[1,0.5]];portConstraint=eastwest;fontSize=12;whiteSpace=wrap;html=1;fontColor=#EEEEEE;" vertex="1" parent="p3evvmeF-BawK3rB3DHZ-97">
          <mxGeometry y="116" width="160" height="30" as="geometry" />
        </mxCell>
        <mxCell id="p3evvmeF-BawK3rB3DHZ-102" value="Contains Bank" style="text;strokeColor=none;fillColor=none;spacingLeft=4;spacingRight=4;overflow=hidden;rotatable=0;points=[[0,0.5],[1,0.5]];portConstraint=eastwest;fontSize=12;whiteSpace=wrap;html=1;fontColor=#EEEEEE;" vertex="1" parent="p3evvmeF-BawK3rB3DHZ-97">
          <mxGeometry y="146" width="160" height="30" as="geometry" />
        </mxCell>
        <mxCell id="p3evvmeF-BawK3rB3DHZ-132" value="" style="rounded=1;absoluteArcSize=1;html=1;arcSize=10;glass=0;fillColor=none;labelBackgroundColor=none;strokeColor=#BAC8D3;fontColor=#EEEEEE;" vertex="1" parent="p3evvmeF-BawK3rB3DHZ-97">
          <mxGeometry y="176" width="160" height="100" as="geometry" />
        </mxCell>
        <mxCell id="p3evvmeF-BawK3rB3DHZ-133" value="Bank Details&lt;div&gt;Yes / No&lt;/div&gt;" style="html=1;shape=mxgraph.er.anchor;whiteSpace=wrap;labelBackgroundColor=none;fillColor=#09555B;strokeColor=#BAC8D3;fontColor=#EEEEEE;" vertex="1" parent="p3evvmeF-BawK3rB3DHZ-132">
          <mxGeometry width="50" height="100" as="geometry" />
        </mxCell>
        <mxCell id="p3evvmeF-BawK3rB3DHZ-134" value="Bank Name&lt;div&gt;Transit&lt;/div&gt;&lt;div&gt;(or)&lt;/div&gt;&lt;div&gt;Bank Address&lt;/div&gt;" style="rounded=1;absoluteArcSize=1;html=1;arcSize=10;whiteSpace=wrap;points=[];strokeColor=#BAC8D3;fillColor=#09555B;labelBackgroundColor=none;fontColor=#EEEEEE;" vertex="1" parent="p3evvmeF-BawK3rB3DHZ-132">
          <mxGeometry x="50" y="5" width="90" height="90" as="geometry" />
        </mxCell>
        <mxCell id="p3evvmeF-BawK3rB3DHZ-131" value="Authorized Signature Yes/No" style="text;strokeColor=none;fillColor=none;spacingLeft=4;spacingRight=4;overflow=hidden;rotatable=0;points=[[0,0.5],[1,0.5]];portConstraint=eastwest;fontSize=12;whiteSpace=wrap;html=1;fontColor=#EEEEEE;" vertex="1" parent="p3evvmeF-BawK3rB3DHZ-97">
          <mxGeometry y="276" width="160" height="34" as="geometry" />
        </mxCell>
        <mxCell id="p3evvmeF-BawK3rB3DHZ-135" value="Attachment" style="text;strokeColor=none;fillColor=none;spacingLeft=4;spacingRight=4;overflow=hidden;rotatable=0;points=[[0,0.5],[1,0.5]];portConstraint=eastwest;fontSize=12;whiteSpace=wrap;html=1;fontColor=#EEEEEE;" vertex="1" parent="p3evvmeF-BawK3rB3DHZ-97">
          <mxGeometry y="310" width="160" height="30" as="geometry" />
        </mxCell>
        <mxCell id="p3evvmeF-BawK3rB3DHZ-139" value="" style="rounded=1;absoluteArcSize=1;html=1;arcSize=10;glass=0;fillColor=none;labelBackgroundColor=none;strokeColor=#BAC8D3;fontColor=#EEEEEE;" vertex="1" parent="p3evvmeF-BawK3rB3DHZ-97">
          <mxGeometry y="340" width="160" height="100" as="geometry" />
        </mxCell>
        <mxCell id="p3evvmeF-BawK3rB3DHZ-140" value="Bank Status" style="html=1;shape=mxgraph.er.anchor;whiteSpace=wrap;labelBackgroundColor=none;fillColor=#09555B;strokeColor=#BAC8D3;fontColor=#EEEEEE;" vertex="1" parent="p3evvmeF-BawK3rB3DHZ-139">
          <mxGeometry width="50" height="100" as="geometry" />
        </mxCell>
        <mxCell id="p3evvmeF-BawK3rB3DHZ-141" value="Sent&amp;nbsp;&lt;div&gt;Follow up1&lt;/div&gt;&lt;div&gt;Follow up2&lt;/div&gt;&lt;div&gt;Positive&lt;/div&gt;&lt;div&gt;Negative&lt;/div&gt;" style="rounded=1;absoluteArcSize=1;html=1;arcSize=10;whiteSpace=wrap;points=[];strokeColor=#BAC8D3;fillColor=#09555B;labelBackgroundColor=none;fontColor=#EEEEEE;" vertex="1" parent="p3evvmeF-BawK3rB3DHZ-139">
          <mxGeometry x="50" y="5" width="90" height="90" as="geometry" />
        </mxCell>
        <mxCell id="p3evvmeF-BawK3rB3DHZ-109" style="edgeStyle=orthogonalEdgeStyle;rounded=0;orthogonalLoop=1;jettySize=auto;html=1;entryX=0.353;entryY=-0.05;entryDx=0;entryDy=0;entryPerimeter=0;strokeColor=#0B4D6A;" edge="1" parent="1" source="p3evvmeF-BawK3rB3DHZ-44" target="p3evvmeF-BawK3rB3DHZ-49">
          <mxGeometry relative="1" as="geometry" />
        </mxCell>
        <mxCell id="p3evvmeF-BawK3rB3DHZ-111" style="edgeStyle=orthogonalEdgeStyle;rounded=0;orthogonalLoop=1;jettySize=auto;html=1;entryX=0.333;entryY=-0.033;entryDx=0;entryDy=0;entryPerimeter=0;strokeColor=#0B4D6A;" edge="1" parent="1" source="p3evvmeF-BawK3rB3DHZ-45" target="p3evvmeF-BawK3rB3DHZ-50">
          <mxGeometry relative="1" as="geometry" />
        </mxCell>
        <mxCell id="p3evvmeF-BawK3rB3DHZ-127" style="edgeStyle=orthogonalEdgeStyle;rounded=0;orthogonalLoop=1;jettySize=auto;html=1;exitX=0.5;exitY=1;exitDx=0;exitDy=0;entryX=0.25;entryY=0;entryDx=0;entryDy=0;strokeColor=#0B4D6A;" edge="1" parent="1" source="p3evvmeF-BawK3rB3DHZ-123" target="p3evvmeF-BawK3rB3DHZ-35">
          <mxGeometry relative="1" as="geometry" />
        </mxCell>
        <mxCell id="p3evvmeF-BawK3rB3DHZ-129" style="edgeStyle=orthogonalEdgeStyle;rounded=0;orthogonalLoop=1;jettySize=auto;html=1;exitX=0.5;exitY=1;exitDx=0;exitDy=0;entryX=0.5;entryY=0;entryDx=0;entryDy=0;strokeColor=#0B4D6A;" edge="1" parent="1" source="p3evvmeF-BawK3rB3DHZ-123" target="p3evvmeF-BawK3rB3DHZ-38">
          <mxGeometry relative="1" as="geometry" />
        </mxCell>
        <mxCell id="p3evvmeF-BawK3rB3DHZ-123" value="Views" style="rounded=0;whiteSpace=wrap;html=1;strokeColor=#BAC8D3;fontColor=#EEEEEE;fillColor=#09555B;" vertex="1" parent="1">
          <mxGeometry x="665" y="520" width="120" height="60" as="geometry" />
        </mxCell>
        <mxCell id="p3evvmeF-BawK3rB3DHZ-124" style="edgeStyle=orthogonalEdgeStyle;rounded=0;orthogonalLoop=1;jettySize=auto;html=1;exitX=0.5;exitY=1;exitDx=0;exitDy=0;entryX=0.394;entryY=-0.078;entryDx=0;entryDy=0;entryPerimeter=0;strokeColor=#0B4D6A;" edge="1" parent="1" source="p3evvmeF-BawK3rB3DHZ-49" target="p3evvmeF-BawK3rB3DHZ-123">
          <mxGeometry relative="1" as="geometry" />
        </mxCell>
        <mxCell id="p3evvmeF-BawK3rB3DHZ-126" style="edgeStyle=orthogonalEdgeStyle;rounded=0;orthogonalLoop=1;jettySize=auto;html=1;exitX=0.5;exitY=1;exitDx=0;exitDy=0;entryX=0.611;entryY=-0.022;entryDx=0;entryDy=0;entryPerimeter=0;strokeColor=#0B4D6A;" edge="1" parent="1" source="p3evvmeF-BawK3rB3DHZ-50" target="p3evvmeF-BawK3rB3DHZ-123">
          <mxGeometry relative="1" as="geometry" />
        </mxCell>
        <mxCell id="p3evvmeF-BawK3rB3DHZ-128" style="edgeStyle=orthogonalEdgeStyle;rounded=0;orthogonalLoop=1;jettySize=auto;html=1;exitX=0.5;exitY=1;exitDx=0;exitDy=0;entryX=0.628;entryY=-0.053;entryDx=0;entryDy=0;entryPerimeter=0;strokeColor=#0B4D6A;" edge="1" parent="1" source="p3evvmeF-BawK3rB3DHZ-123" target="p3evvmeF-BawK3rB3DHZ-37">
          <mxGeometry relative="1" as="geometry" />
        </mxCell>
        <mxCell id="p3evvmeF-BawK3rB3DHZ-142" style="edgeStyle=orthogonalEdgeStyle;rounded=0;orthogonalLoop=1;jettySize=auto;html=1;exitX=0;exitY=0;exitDx=0;exitDy=0;entryX=0.278;entryY=-0.033;entryDx=0;entryDy=0;entryPerimeter=0;strokeColor=#0B4D6A;" edge="1" parent="1" source="p3evvmeF-BawK3rB3DHZ-39" target="p3evvmeF-BawK3rB3DHZ-30">
          <mxGeometry relative="1" as="geometry" />
        </mxCell>
        <mxCell id="p3evvmeF-BawK3rB3DHZ-143" value="Positive" style="rounded=0;whiteSpace=wrap;html=1;strokeColor=#BAC8D3;fontColor=#EEEEEE;fillColor=#09555B;" vertex="1" parent="1">
          <mxGeometry x="800" y="730" width="100" height="40" as="geometry" />
        </mxCell>
        <mxCell id="p3evvmeF-BawK3rB3DHZ-144" value="Positive" style="rounded=0;whiteSpace=wrap;html=1;strokeColor=#BAC8D3;fontColor=#EEEEEE;fillColor=#09555B;" vertex="1" parent="1">
          <mxGeometry x="950" y="730" width="100" height="40" as="geometry" />
        </mxCell>
      </root>
    </mxGraphModel>
  </diagram>
</mxfile>
